<svg xmlns="http://www.w3.org/2000/svg" viewBox="0 0 50 21" fill="#1C1917">
  <path d="M9.6 2.8c-.6.7-1.5 1.2-2.4 1.1-.1-.9.3-1.8.8-2.4C8.6.8 9.6.3 10.4.3c.1.9-.3 1.8-.8 2.5zM10.4 4.2c-1.3-.1-2.4.7-3 .7-.6 0-1.6-.7-2.6-.7-1.3 0-2.6.8-3.3 2-.7 1.2-.6 3.5.5 5.5.5 1 1.2 2.1 2.2 2.1.9 0 1.2-.6 2.5-.6 1.3 0 1.5.6 2.5.6.9 0 1.6-1 2.1-1.9.4-.7.5-1.3.6-1.4 0 0-1.2-.5-1.2-1.8 0-1.2.9-1.7.9-1.7-.5-.8-1.3-1.1-1.6-1.1-.6-.1-1.5.2-1.5.2s.5.2.5.6c0 .7-.9.7-.9.7s-.5 0-.5-.6c0-.6.5-1.1.8-1.3.3-.2.6-.3.6-.3s-.1-.3-.7-.5c-.5-.2-.9 0-.9 0z"/>
  <path d="M17.8 13.9h-1.3l3.2-10h1.6l3.2 10h-1.4l-.8-2.6h-3.7l-.8 2.6zm1.2-3.8h3l-1.5-4.7h0l-1.5 4.7zM25.4 13.9V3.9h1.2v4h.1c.2-.4.5-.7.8-.9.4-.3.8-.4 1.4-.4.8 0 1.4.3 1.9.8.5.5.7 1.2.7 2.2v4.3h-1.2V9.8c0-.6-.1-1.1-.4-1.4-.3-.3-.7-.5-1.2-.5-.4 0-.7.1-1 .3-.3.2-.5.5-.7.8-.2.4-.3.8-.3 1.3v3.6h-1.3zM33.8 14c-.5 0-.9-.1-1.2-.2-.3-.2-.6-.4-.7-.7-.2-.3-.2-.6-.2-.9 0-.4.1-.7.3-1 .2-.3.5-.5.9-.7.4-.2.9-.3 1.4-.4l1.9-.2v-.4c0-.4-.1-.8-.4-1-.3-.3-.6-.4-1.1-.4-.5 0-.8.1-1.1.3-.3.2-.5.5-.5.8h-1.2c0-.4.1-.8.4-1.1.3-.3.6-.6 1-.8.4-.2.9-.3 1.4-.3.8 0 1.5.2 1.9.6.5.4.7 1 .7 1.7v4.2h-1.2v-1h-.1c-.2.3-.5.6-.8.8-.3.2-.8.3-1.4.3zm.2-1.1c.4 0 .7-.1 1-.3.3-.2.5-.4.7-.7.2-.3.2-.6.2-.9v-.8l-1.7.2c-.5.1-.9.2-1.2.4-.3.2-.4.5-.4.8 0 .4.1.6.4.8.2.3.5.5 1 .5zM38.5 16.6V6.8h1.2v1.1h.1c.1-.2.3-.4.5-.6.2-.2.5-.4.8-.5.3-.1.7-.2 1.1-.2.6 0 1.1.1 1.5.4.4.3.8.7 1 1.2.2.5.4 1.1.4 1.8 0 .7-.1 1.3-.4 1.8-.2.5-.6.9-1 1.2-.4.3-.9.4-1.5.4-.4 0-.8-.1-1.1-.2-.3-.1-.6-.3-.8-.5-.2-.2-.4-.4-.5-.6h-.1v5.4h-1.2zm1.2-6.5c0 .4.1.8.2 1.2.1.4.4.7.6.9.3.2.6.4 1 .4s.8-.1 1-.4c.3-.2.5-.6.6-.9.1-.4.2-.8.2-1.2 0-.4-.1-.8-.2-1.2-.1-.4-.4-.7-.6-.9-.3-.2-.6-.4-1-.4s-.8.1-1 .4c-.3.2-.5.5-.6.9-.1.4-.2.8-.2 1.2zM46.4 14c-.5 0-.9-.1-1.2-.2-.3-.2-.6-.4-.7-.7-.2-.3-.2-.6-.2-.9 0-.4.1-.7.3-1 .2-.3.5-.5.9-.7.4-.2.9-.3 1.4-.4l1.9-.2v-.4c0-.4-.1-.8-.4-1-.3-.3-.6-.4-1.1-.4-.5 0-.8.1-1.1.3-.3.2-.5.5-.5.8h-1.2c0-.4.1-.8.4-1.1.3-.3.6-.6 1-.8.4-.2.9-.3 1.4-.3.8 0 1.5.2 1.9.6.5.4.7 1 .7 1.7v4.2h-1.2v-1h-.1c-.2.3-.5.6-.8.8-.3.2-.8.3-1.4.3zm.2-1.1c.4 0 .7-.1 1-.3.3-.2.5-.4.7-.7.2-.3.2-.6.2-.9v-.8l-1.7.2c-.5.1-.9.2-1.2.4-.3.2-.4.5-.4.8 0 .4.1.6.4.8.2.3.5.5 1 .5z"/>
</svg>
