<svg xmlns="http://www.w3.org/2000/svg" viewBox="0 0 50 21">
  <path fill="#4285F4" d="M22.8 10.3v3.6h-1.2V4.4h3.1c.8 0 1.4.2 2 .7.5.5.8 1.1.8 1.8 0 .8-.3 1.4-.8 1.8-.5.5-1.2.7-2 .7h-1.9zm0-4.7v3.6h2c.5 0 .9-.2 1.2-.5.3-.3.5-.7.5-1.2 0-.5-.2-.9-.5-1.2-.3-.3-.7-.5-1.2-.5h-2z"/>
  <path fill="#34A853" d="M30.5 7.3c.9 0 1.6.2 2.1.7.5.5.8 1.2.8 2v4h-1.1v-.9h-.1c-.5.7-1.1 1.1-1.9 1.1-.7 0-1.3-.2-1.7-.6-.4-.4-.7-.9-.7-1.5 0-.6.2-1.1.7-1.5.5-.4 1.1-.5 1.9-.5.7 0 1.2.1 1.6.4v-.3c0-.4-.2-.8-.5-1.1-.3-.3-.7-.4-1.1-.4-.6 0-1.1.3-1.4.8l-1-.6c.5-.8 1.2-1.1 2.4-1.1zm-1.5 4.5c0 .3.1.6.4.8.3.2.6.3.9.3.5 0 .9-.2 1.3-.5.4-.4.5-.8.5-1.2-.4-.3-.8-.4-1.4-.4-.5 0-.9.1-1.2.3-.4.2-.5.5-.5.7z"/>
  <path fill="#4285F4" d="M39.9 7.5l-3.9 8.9h-1.2l1.4-3.1-2.5-5.8h1.3l1.8 4.3h0l1.7-4.3h1.4z"/>
  <path fill="#EA4335" d="M14.8 9.5c0-.4 0-.7-.1-1H9v1.8h3.3c-.1.7-.5 1.4-1.1 1.8v1.5h1.8c1-.9 1.7-2.3 1.8-4.1z"/>
  <path fill="#FBBC04" d="M9 14.9c1.5 0 2.8-.5 3.7-1.3l-1.8-1.5c-.5.3-1.1.5-1.9.5-1.5 0-2.7-1-3.1-2.3H4v1.5c.9 1.8 2.8 3.1 5 3.1z"/>
  <path fill="#34A853" d="M5.9 10.3c-.1-.4-.2-.8-.2-1.2s.1-.8.2-1.2V6.4H4c-.3.7-.4 1.4-.4 2.1 0 .8.2 1.5.5 2.2l1.8-1.4z"/>
  <path fill="#EA4335" d="M9 5.6c.8 0 1.6.3 2.2.8l1.6-1.6C11.8 3.9 10.5 3.4 9 3.4c-2.2 0-4.1 1.3-5 3.1l1.8 1.4c.5-1.4 1.7-2.3 3.2-2.3z"/>
</svg>
