<svg xmlns="http://www.w3.org/2000/svg" viewBox="0 0 50 16">
  <path fill="#1A1F71" d="M19.8 15.2l2.5-15h4l-2.5 15h-4zM35.3.5c-.8-.3-2-.6-3.5-.6-3.9 0-6.6 2-6.6 4.9 0 2.1 2 3.3 3.5 4 1.6.7 2.1 1.2 2.1 1.9 0 1-.1.3 1.5-.5 1.5-.8-2.4-1-2.7-1-3.5 0-.8.4-1 .7h4.3l.5-2.9c-.4-.2-.5-.3-1.3-.5-.6-.1-1.5-.3-2.5-.3-1.4 0-2.6.4-3.4 1-.9.6-1.3 1.5-1.3 2.7 0 3 4.4 3.1 4.4 4.8 0 .8-.7 1.3-1.8 1.3-1.2 0-2.5-.5-3.2-.8l-.5 3c.8.4 2.3.7 3.9.7 4 0 6.6-2 6.6-5 0-3.5-4.4-3.7-4.4-4.8 0-.6.5-1.2 1.7-1.2.8 0 1.5.1 2.3.4l.5-2.9zM43.1.3l-3 9.1-.3-1.6-1.1-5.5c-.2-.8-.7-1-1.4-1H32l-.1.4c1.5.4 2.8.9 4.1 1.5L39.5 15h4.2L48 .3h-4.9zM15.5.3l-6.1 15H5.2L2.1 3.3C2 2.8 1.8 2.5 1.3 2.3.5 1.8-.2 1.4 0 1h6.4l1.9 10.3 4.5-11h2.7z"/>
</svg>
