<svg width="20" height="21" viewBox="0 0 20 21" fill="none" xmlns="http://www.w3.org/2000/svg">
<path d="M19.5808 16.3654C19.2218 17.0991 18.7967 17.7744 18.3043 18.3953C17.633 19.2418 17.0834 19.8277 16.6598 20.153C16.0032 20.6871 15.2997 20.9606 14.5464 20.9762C14.0056 20.9762 13.3534 20.8401 12.5942 20.564C11.8325 20.2891 11.1325 20.153 10.4925 20.153C9.82119 20.153 9.10128 20.2891 8.33123 20.564C7.56002 20.8401 6.93874 20.9839 6.46373 20.9982C5.74132 21.0254 5.02125 20.7441 4.30251 20.153C3.84376 19.7992 3.26997 19.1925 2.58259 18.3331C1.84508 17.4153 1.23875 16.3511 0.76374 15.1378C0.25502 13.8273 0 12.5583 0 11.3297C0 9.92233 0.343837 8.70852 1.03254 7.69134C1.57379 6.87431 2.29386 6.22981 3.19508 5.75668C4.09629 5.28355 5.07006 5.04244 6.11872 5.02702C6.69251 5.02702 7.44497 5.18399 8.38004 5.4925C9.31247 5.80205 9.91118 5.95903 10.1737 5.95903C10.3699 5.95903 11.035 5.77548 12.1625 5.40954C13.2288 5.07018 14.1287 4.92967 14.8659 4.98502C16.8636 5.12761 18.3644 5.82409 19.3625 7.07886C17.5758 8.03628 16.6921 9.37725 16.7097 11.0975C16.7258 12.4375 17.2754 13.5525 18.3556 14.4378C18.8451 14.8488 19.3918 15.1663 20 15.3919C19.8681 15.7302 19.7289 16.0543 19.5808 16.3654ZM14.9993 0.42012C14.9993 1.47036 14.5654 2.45097 13.7007 3.3586C12.6572 4.43761 11.395 5.06111 10.0262 4.96272C10.0088 4.83673 9.99868 4.70412 9.99868 4.56477C9.99868 3.55654 10.4949 2.47754 11.3762 1.59531C11.8162 1.14862 12.3758 0.777199 13.0544 0.480913C13.7315 0.189048 14.372 0.0276404 14.9744 0C14.9919 0.140401 14.9993 0.28081 14.9993 0.420106V0.42012Z" fill="white"/>
</svg>
