<svg width="85" height="29" viewBox="0 0 85 29" fill="none" xmlns="http://www.w3.org/2000/svg">
<path d="M80.1004 15.5535C80.1004 16.0739 79.9944 16.4497 79.7824 16.681C79.5704 16.893 79.1849 16.999 78.626 16.999H69.6639C69.8759 17.7314 70.3481 18.3385 71.0805 18.8203C71.8129 19.2829 72.7669 19.5142 73.9426 19.5142C74.9833 19.5142 75.947 19.3889 76.8336 19.1383C77.7201 18.8878 78.1731 18.7625 78.1923 18.7625C78.7127 18.7625 78.9729 19.042 78.9729 19.6009V21.2777C78.9729 21.9137 78.7705 22.3569 78.3658 22.6075C77.3443 23.2435 75.7157 23.5615 73.48 23.5615C71.0709 23.5615 69.0665 22.8484 67.4668 21.4222C65.8864 19.996 65.0962 18.059 65.0962 15.6113C65.0962 13.3949 65.8093 11.5158 67.2355 9.97392C68.681 8.43206 70.4831 7.66113 72.6417 7.66113C75.0315 7.66113 76.8721 8.37424 78.1634 9.80046C79.4547 11.2074 80.1004 13.1251 80.1004 15.5535ZM72.6995 11.535C71.8515 11.535 71.1576 11.7663 70.618 12.2289C70.0976 12.6722 69.7699 13.2696 69.635 14.0213H75.6194C75.523 13.2696 75.2243 12.6722 74.7232 12.2289C74.2413 11.7663 73.5668 11.535 72.6995 11.535Z" fill="#1a1a1a"/>
<path d="M63.961 18.9074C64.4235 18.9074 64.6548 19.1773 64.6548 19.7169V21.4226C64.6548 21.8851 64.5873 22.2224 64.4524 22.4344C64.3368 22.6464 64.0573 22.8392 63.614 23.0126C62.9395 23.2825 62.0529 23.4174 60.9543 23.4174C57.1382 23.4174 55.2302 21.3455 55.2302 17.2018V12.2293H54.016C53.4763 12.2293 53.0812 12.1136 52.8307 11.8824C52.5994 11.6511 52.4838 11.256 52.4838 10.6971V9.77194C52.4838 9.21302 52.5994 8.81792 52.8307 8.58664C53.0812 8.35536 53.4763 8.23972 54.016 8.23972H55.2302V6.01367C55.2302 5.47402 55.3458 5.08855 55.5771 4.85727C55.8084 4.60672 56.2035 4.48145 56.7624 4.48145H58.3235C58.8825 4.48145 59.2776 4.60672 59.5088 4.85727C59.7401 5.08855 59.8558 5.47402 59.8558 6.01367V8.23972H62.8046C63.3442 8.23972 63.7297 8.35536 63.961 8.58664C64.2115 8.81792 64.3368 9.21302 64.3368 9.77194V10.6971C64.3368 11.256 64.2115 11.6511 63.961 11.8824C63.7297 12.1136 63.3442 12.2293 62.8046 12.2293H59.8558V16.6525C59.8558 17.5969 60.0196 18.2618 60.3472 18.6472C60.6942 19.0134 61.2531 19.1965 62.024 19.1965C62.4095 19.1965 62.7949 19.1484 63.1804 19.052C63.5851 18.9556 63.8453 18.9074 63.961 18.9074Z" fill="#1a1a1a"/>
<path d="M50.3138 7.95023C50.9113 7.95023 51.21 8.29715 51.21 8.99098V22.2317C51.21 22.9255 50.9113 23.2724 50.3138 23.2724C49.9091 23.2724 49.4562 23.1086 48.955 22.781C48.4539 22.434 48.0107 21.9715 47.6252 21.3933C47.1048 22.01 46.3724 22.5304 45.4281 22.9544C44.4837 23.3592 43.4622 23.5615 42.3636 23.5615C40.1086 23.5615 38.2681 22.8195 36.8418 21.3355C35.4156 19.8322 34.7025 17.9241 34.7025 15.6113C34.7025 13.3371 35.4156 11.4483 36.8418 9.94501C38.2873 8.42242 40.1279 7.66113 42.3636 7.66113C43.4622 7.66113 44.4837 7.87314 45.4281 8.29715C46.3724 8.70189 47.1048 9.21263 47.6252 9.82937C48.0107 9.25117 48.4539 8.79825 48.955 8.47061C49.4562 8.12369 49.9091 7.95023 50.3138 7.95023ZM40.4267 18.3578C41.1205 19.0516 41.9781 19.3985 42.9996 19.3985C44.0211 19.3985 44.8691 19.0516 45.5437 18.3578C46.2375 17.6447 46.5844 16.7292 46.5844 15.6113C46.5844 14.4935 46.2375 13.5876 45.5437 12.8938C44.8691 12.1807 44.0211 11.8241 42.9996 11.8241C41.9781 11.8241 41.1205 12.1807 40.4267 12.8938C39.7328 13.5876 39.3859 14.4935 39.3859 15.6113C39.3859 16.7292 39.7328 17.6447 40.4267 18.3578Z" fill="#1a1a1a"/>
<path d="M31.4846 9.80046C32.6603 11.1689 33.2481 13.2022 33.2481 15.9004V21.4511C33.2481 22.01 33.1229 22.4051 32.8723 22.6364C32.641 22.8677 32.2556 22.9833 31.7159 22.9833H30.1548C29.6151 22.9833 29.22 22.8677 28.9695 22.6364C28.7382 22.4051 28.6226 22.01 28.6226 21.4511V16.045C28.6226 14.6766 28.3817 13.684 27.8998 13.0673C27.3794 12.3927 26.5989 12.0554 25.5581 12.0554C24.5174 12.0554 23.7079 12.3927 23.1297 13.0673C22.5515 13.7418 22.2624 14.7248 22.2624 16.0161V21.4511C22.2624 21.9908 22.1468 22.3859 21.9155 22.6364C21.6842 22.8677 21.2891 22.9833 20.7302 22.9833H19.1691C18.6101 22.9833 18.215 22.8677 17.9838 22.6364C17.7525 22.3859 17.6368 21.9908 17.6368 21.4511V8.99098C17.6368 8.29715 17.9356 7.95023 18.533 7.95023C18.9571 7.95023 19.4196 8.12369 19.9207 8.47061C20.4218 8.79825 20.8651 9.27044 21.2506 9.88719C21.848 9.17408 22.5901 8.62479 23.4766 8.23933C24.3825 7.85386 25.3076 7.66113 26.252 7.66113C28.4877 7.66113 30.2319 8.37424 31.4846 9.80046Z" fill="#1a1a1a"/>
<path d="M6.58159 15.8145C6.58159 15.8155 6.58204 15.8165 6.58282 15.8171C8.69606 17.6524 10.7128 19.4024 12.7653 21.1837C13.5362 21.8526 13.0632 23.1197 12.0425 23.1197H4.97132C4.30042 23.1197 3.92716 22.2076 4.50063 21.8595C6.25071 20.7955 6.94815 19.2984 6.59132 17.2807C6.52158 16.8898 6.58159 16.4778 6.58159 15.8145Z" fill="url(#paint0_linear_email)"/>
<path d="M5.2281 9.93561C4.45774 9.26645 4.93095 8 5.95137 8H12.0726C13.0936 8 13.6157 9.32678 12.798 9.93811C12.7231 9.99407 12.6476 10.0487 12.5711 10.102C11.6726 10.7297 11.3482 11.4888 11.4601 12.5609C11.4733 12.6884 11.4829 12.8162 11.4897 12.9451C11.5397 13.8896 10.3656 14.3976 9.65155 13.7775C8.16913 12.49 6.71146 11.2241 5.2281 9.93561Z" fill="url(#paint1_linear_email)"/>
<defs>
<linearGradient id="paint0_linear_email" x1="9.01614" y1="15.8145" x2="9.01614" y2="23.1197" gradientUnits="userSpaceOnUse">
<stop stop-color="#FFD208"/>
<stop offset="1" stop-color="#FF941A"/>
</linearGradient>
<linearGradient id="paint1_linear_email" x1="9.01419" y1="8" x2="9.01419" y2="15.3637" gradientUnits="userSpaceOnUse">
<stop stop-color="#FFD208"/>
<stop offset="1" stop-color="#FF941A"/>
</linearGradient>
</defs>
</svg>
