<svg width="40" height="40" viewBox="0 0 40 40" fill="none" xmlns="http://www.w3.org/2000/svg">
<path d="M31.4089 4.90723L7.85272 4.90723C6.22651 4.90723 4.9082 6.22553 4.9082 7.85175L4.9082 31.4079C4.9082 33.0341 6.22651 34.3524 7.85272 34.3524H31.4089C33.0351 34.3524 34.3534 33.0341 34.3534 31.4079V7.85175C34.3534 6.22553 33.0351 4.90723 31.4089 4.90723Z" fill="#6772E5"/>
<path fill-rule="evenodd" clip-rule="evenodd" d="M18.3141 15.9203C18.3141 15.1548 18.9422 14.8603 19.9826 14.8603C21.4745 14.8603 23.359 15.3118 24.8509 16.1167V11.5036C23.2216 10.8558 21.6119 10.6006 19.9826 10.6006C15.9977 10.6006 13.3477 12.6814 13.3477 16.1559C13.3477 21.5738 20.8071 20.7101 20.8071 23.0461C20.8071 23.9491 20.0219 24.2435 18.9226 24.2435C17.2933 24.2435 15.2125 23.5761 13.5636 22.6731V27.3451C15.3892 28.1303 17.2344 28.464 18.9226 28.464C23.0057 28.464 25.8128 26.4421 25.8128 22.9283C25.7932 17.0785 18.3141 18.1189 18.3141 15.9203Z" fill="white"/>
</svg>
