<svg width="42" height="42" viewBox="0 0 42 42" fill="none" xmlns="http://www.w3.org/2000/svg">
<path fill-rule="evenodd" clip-rule="evenodd" d="M22.7273 28.6493C22.5033 28.7998 22.2513 28.8715 21.9993 28.8715C21.5758 28.8715 21.1592 28.6685 20.9072 28.2888C20.503 27.6868 20.664 26.8713 21.2677 26.4688C23.3362 25.0828 25.2613 23.4815 26.355 22.3125H14.28C13.5555 22.3125 12.9675 21.7245 12.9675 21C12.9675 20.2755 13.5555 19.6875 14.28 19.6875H26.3585C25.256 18.5185 23.3083 16.8928 21.266 15.5243C20.664 15.1218 20.503 14.3045 20.9072 13.7025C21.3097 13.1005 22.1217 12.9395 22.729 13.3438C24.8867 14.791 29.9075 18.4345 29.9075 21C29.9075 23.5655 24.885 27.2038 22.7273 28.6493ZM21.4375 3.9375C8.83925 3.9375 4.375 8.4035 4.375 21C4.375 33.5965 8.83925 38.0625 21.4375 38.0625C34.034 38.0625 38.5 33.5965 38.5 21C38.5 8.4035 34.034 3.9375 21.4375 3.9375Z" fill="black"/>
</svg>
