<svg width="37" height="37" viewBox="0 0 37 37" fill="none" xmlns="http://www.w3.org/2000/svg">
<path fill-rule="evenodd" clip-rule="evenodd" d="M24.0249 16.2756L17.7457 22.5579C17.5283 22.7753 17.2338 22.8971 16.9271 22.8971C16.6203 22.8971 16.3258 22.7753 16.11 22.5579L13.0622 19.5054C12.612 19.0522 12.612 18.3199 13.0637 17.8682C13.517 17.418 14.2477 17.4196 14.6994 17.8697L16.9286 20.1036L22.3892 14.6399C22.8409 14.1882 23.5732 14.1882 24.0249 14.6399C24.4766 15.0916 24.4766 15.8239 24.0249 16.2756ZM31.9182 15.548L30.8406 14.4703C30.3488 13.977 30.079 13.3202 30.079 12.6249V11.0833C30.079 8.78772 28.2105 6.92076 25.9165 6.92076H24.3718C23.6734 6.92076 23.0182 6.65097 22.5279 6.16072L21.4318 5.06613C19.8023 3.45047 17.1629 3.45817 15.5457 5.08309L14.4712 6.16072C13.9764 6.65251 13.3212 6.9223 12.6243 6.9223H11.0811C8.81333 6.92384 6.96334 8.74917 6.92171 11.0093C6.92015 11.0339 6.91863 11.0586 6.91863 11.0848V12.6218C6.91863 13.3187 6.64884 13.9739 6.15704 14.4657L5.06554 15.5588C5.064 15.5634 5.05938 15.5649 5.05629 15.568C3.44525 17.1991 3.45913 19.8384 5.0825 21.4464L6.16013 22.5271C6.65038 23.0189 6.92171 23.6726 6.92171 24.3694V25.9188C6.92171 28.2128 8.78713 30.0797 11.0811 30.0797H12.6213C13.3196 30.0813 13.9748 30.3511 14.4651 30.8398L15.5642 31.9359C16.3474 32.7144 17.3865 33.143 18.4918 33.143H18.5103C19.6219 33.1384 20.6641 32.7006 21.4441 31.9158L22.5248 30.8367C23.0105 30.3526 23.6826 30.0751 24.3687 30.0751H25.9196C28.209 30.0751 30.0759 28.2112 30.0805 25.9188V24.3725C30.0805 23.6772 30.3503 23.022 30.839 22.5302L31.9352 21.4341C33.5539 19.8061 33.5447 17.1652 31.9182 15.548Z" fill="black"/>
</svg>
