<svg width="24" height="24" viewBox="0 0 24 24" fill="none" xmlns="http://www.w3.org/2000/svg">
<path fill-rule="evenodd" clip-rule="evenodd" d="M23.3466 16.5689C22.6166 14.2829 20.6816 12.9749 18.0266 12.9749H18.0076C16.9256 12.9649 15.9586 13.1829 15.1426 13.5999C17.4196 14.3309 19.1076 15.9529 19.8846 18.2479C21.1176 18.0769 22.1896 17.6979 23.1376 17.1189L23.4506 16.9199L23.3466 16.5689Z" fill="black"/>
<path fill-rule="evenodd" clip-rule="evenodd" d="M16.2905 11.2479C16.8025 11.5329 17.3815 11.6939 18.0075 11.6939C19.9705 11.6939 21.5635 10.0999 21.5635 8.13684C21.5635 6.18384 19.9705 4.58984 18.0075 4.58984C17.6185 4.58984 17.2485 4.65684 16.8975 4.76984C17.4095 5.59584 17.7035 6.57184 17.7035 7.60584C17.7035 9.00984 17.1815 10.2809 16.2905 11.2479Z" fill="black"/>
<path fill-rule="evenodd" clip-rule="evenodd" d="M9.31032 13.5816C8.51332 13.1836 7.57432 12.9746 6.51232 12.9746H6.47432C3.81932 12.9746 1.88432 14.2836 1.16332 16.5686L1.04932 16.9196L1.36232 17.1186C2.26332 17.6696 3.32632 18.0386 4.51132 18.2286C5.29832 15.9246 7.01532 14.2926 9.31032 13.5816Z" fill="black"/>
<path fill-rule="evenodd" clip-rule="evenodd" d="M6.49352 11.6939C7.11952 11.6939 7.69752 11.5329 8.21052 11.2479C7.31852 10.2809 6.79652 9.00984 6.79652 7.60584C6.79652 6.57284 7.09052 5.59584 7.60352 4.77084C7.25252 4.65684 6.88252 4.58984 6.49352 4.58984C4.53052 4.58984 2.93652 6.18384 2.93652 8.13684C2.93652 10.1009 4.53052 11.6939 6.49352 11.6939Z" fill="black"/>
<path fill-rule="evenodd" clip-rule="evenodd" d="M12.216 14.1035C12.2 14.1035 12.185 14.1035 12.17 14.1035C8.756 14.1035 6.267 15.7815 5.341 18.7105L5.229 19.0645L5.546 19.2585C7.354 20.3605 9.514 20.8965 12.149 20.8965H12.234C14.871 20.8965 17.032 20.3605 18.84 19.2585L19.158 19.0645L19.046 18.7105C18.119 15.7815 15.631 14.1035 12.216 14.1035Z" fill="black"/>
<path fill-rule="evenodd" clip-rule="evenodd" d="M12.2502 12.1185C14.7362 12.1185 16.7582 10.0965 16.7582 7.61052C16.7582 5.12552 14.7362 3.10352 12.2502 3.10352C9.76419 3.10352 7.74219 5.12552 7.74219 7.61052C7.74219 10.0965 9.76419 12.1185 12.2502 12.1185Z" fill="black"/>
</svg>
