<svg width="85" height="29" viewBox="0 0 85 29" fill="none" xmlns="http://www.w3.org/2000/svg">
<path d="M80.1004 15.5535C80.1004 16.0739 79.9944 16.4497 79.7824 16.681C79.5704 16.893 79.1849 16.999 78.626 16.999H69.6639C69.8759 17.7314 70.3481 18.3385 71.0805 18.8203C71.8129 19.2829 72.7669 19.5142 73.9426 19.5142C74.9833 19.5142 75.947 19.3889 76.8336 19.1383C77.7201 18.8878 78.1731 18.7625 78.1923 18.7625C78.7127 18.7625 78.9729 19.042 78.9729 19.6009V21.2777C78.9729 21.9137 78.7705 22.3569 78.3658 22.6075C77.3443 23.2435 75.7157 23.5615 73.48 23.5615C71.0709 23.5615 69.0665 22.8484 67.4668 21.4222C65.8864 19.996 65.0962 18.059 65.0962 15.6113C65.0962 13.3949 65.8093 11.5158 67.2355 9.97392C68.681 8.43206 70.4831 7.66113 72.6417 7.66113C75.0315 7.66113 76.8721 8.37424 78.1634 9.80046C79.4547 11.2074 80.1004 13.1251 80.1004 15.5535ZM72.6995 11.535C71.8515 11.535 71.1576 11.7663 70.618 12.2289C70.0976 12.6722 69.7699 13.2696 69.635 14.0213H75.6194C75.523 13.2696 75.2243 12.6722 74.7232 12.2289C74.2413 11.7663 73.5668 11.535 72.6995 11.535Z" fill="white"/>
<path d="M63.961 18.9074C64.4235 18.9074 64.6548 19.1773 64.6548 19.7169V21.4226C64.6548 21.8851 64.5873 22.2224 64.4524 22.4344C64.3368 22.6464 64.0573 22.8392 63.614 23.0126C62.9395 23.2825 62.0529 23.4174 60.9543 23.4174C57.1382 23.4174 55.2302 21.3455 55.2302 17.2018V12.2293H54.016C53.4763 12.2293 53.0812 12.1136 52.8307 11.8824C52.5994 11.6511 52.4838 11.256 52.4838 10.6971V9.77194C52.4838 9.21302 52.5994 8.81792 52.8307 8.58664C53.0812 8.35536 53.4763 8.23972 54.016 8.23972H55.2302V6.01367C55.2302 5.47402 55.3458 5.08855 55.5771 4.85727C55.8084 4.60672 56.2035 4.48145 56.7624 4.48145H58.3235C58.8825 4.48145 59.2776 4.60672 59.5088 4.85727C59.7401 5.08855 59.8558 5.47402 59.8558 6.01367V8.23972H62.8046C63.3442 8.23972 63.7297 8.35536 63.961 8.58664C64.2115 8.81792 64.3368 9.21302 64.3368 9.77194V10.6971C64.3368 11.256 64.2115 11.6511 63.961 11.8824C63.7297 12.1136 63.3442 12.2293 62.8046 12.2293H59.8558V16.6525C59.8558 17.5969 60.0196 18.2618 60.3472 18.6472C60.6942 19.0134 61.2531 19.1965 62.024 19.1965C62.4095 19.1965 62.7949 19.1484 63.1804 19.052C63.5851 18.9556 63.8453 18.9074 63.961 18.9074Z" fill="white"/>
<path d="M50.3138 7.95023C50.9113 7.95023 51.21 8.29715 51.21 8.99098V22.2317C51.21 22.9255 50.9113 23.2724 50.3138 23.2724C49.9091 23.2724 49.4562 23.1086 48.955 22.781C48.4539 22.434 48.0107 21.9715 47.6252 21.3933C47.1048 22.01 46.3724 22.5304 45.4281 22.9544C44.4837 23.3592 43.4622 23.5615 42.3636 23.5615C40.1086 23.5615 38.2681 22.8195 36.8418 21.3355C35.4156 19.8322 34.7025 17.9241 34.7025 15.6113C34.7025 13.3371 35.4156 11.4483 36.8418 9.94501C38.2873 8.42242 40.1279 7.66113 42.3636 7.66113C43.4622 7.66113 44.4837 7.87314 45.4281 8.29715C46.3724 8.70189 47.1048 9.21263 47.6252 9.82937C48.0107 9.25117 48.4539 8.79825 48.955 8.47061C49.4562 8.12369 49.9091 7.95023 50.3138 7.95023ZM40.4267 18.3578C41.1205 19.0516 41.9781 19.3985 42.9996 19.3985C44.0211 19.3985 44.8691 19.0516 45.5437 18.3578C46.2375 17.6447 46.5844 16.7292 46.5844 15.6113C46.5844 14.4935 46.2375 13.5876 45.5437 12.8938C44.8691 12.1807 44.0211 11.8241 42.9996 11.8241C41.9781 11.8241 41.1205 12.1807 40.4267 12.8938C39.7328 13.5876 39.3859 14.4935 39.3859 15.6113C39.3859 16.7292 39.7328 17.6447 40.4267 18.3578Z" fill="white"/>
<path d="M31.4846 9.80046C32.6603 11.1689 33.2481 13.2022 33.2481 15.9004V21.4511C33.2481 22.01 33.1229 22.4051 32.8723 22.6364C32.641 22.8677 32.2556 22.9833 31.7159 22.9833H30.1548C29.6151 22.9833 29.22 22.8677 28.9695 22.6364C28.7382 22.4051 28.6226 22.01 28.6226 21.4511V16.045C28.6226 14.6766 28.3817 13.684 27.8998 13.0673C27.3794 12.3927 26.5989 12.0554 25.5581 12.0554C24.5174 12.0554 23.7079 12.3927 23.1297 13.0673C22.5515 13.7418 22.2624 14.7248 22.2624 16.0161V21.4511C22.2624 21.9908 22.1468 22.3859 21.9155 22.6364C21.6842 22.8677 21.2891 22.9833 20.7302 22.9833H19.1691C18.6101 22.9833 18.215 22.8677 17.9838 22.6364C17.7525 22.3859 17.6368 21.9908 17.6368 21.4511V8.99098C17.6368 8.29715 17.9356 7.95023 18.533 7.95023C18.9571 7.95023 19.4196 8.12369 19.9207 8.47061C20.4218 8.79825 20.8651 9.27044 21.2506 9.88719C21.848 9.17408 22.5901 8.62479 23.4766 8.23933C24.3825 7.85386 25.3076 7.66113 26.252 7.66113C28.4877 7.66113 30.2319 8.37424 31.4846 9.80046Z" fill="white"/>
<path d="M72.6443 3.17969C75.9699 3.17969 79.1478 4.20854 81.487 6.79207H81.4867C83.711 9.22862 84.5831 12.3274 84.5831 15.5519C84.5831 16.4094 84.4507 17.9168 83.4459 19.2718C83.4523 19.388 83.4555 19.4976 83.4555 19.5993V21.2761C83.4555 22.8756 82.8831 25.0741 80.7361 26.4088C78.6207 27.7259 75.9446 28.0401 73.4826 28.0401C70.1205 28.0401 67.0117 27.0144 64.4882 24.7646L64.468 24.7465C63.9306 24.2616 63.4536 23.7434 63.0343 23.1964C63.2431 23.1438 63.437 23.0823 63.6159 23.0107C64.0592 22.8373 64.3389 22.6444 64.4546 22.4324C64.5894 22.2204 64.6569 21.8832 64.6569 21.4207V19.715C64.6569 19.1754 64.4255 18.9054 63.9629 18.9054C63.8473 18.9054 63.5871 18.9537 63.1825 19.05C62.7971 19.1464 62.4113 19.1946 62.0259 19.1946C61.6453 19.1946 61.3165 19.1496 61.0393 19.0604C60.7553 17.9566 60.6188 16.7995 60.6188 15.6099C60.6188 14.4411 60.7589 13.3094 61.0396 12.2272H62.8065C63.3462 12.2272 63.7316 12.1117 63.9629 11.8805C64.2135 11.6492 64.3389 11.254 64.3389 10.6951V9.77008C64.3389 9.21116 64.2135 8.81601 63.9629 8.58473C63.7436 8.36538 63.3856 8.25014 62.8889 8.23883C63.2083 7.78671 63.5612 7.34965 63.9492 6.93016L63.9596 6.91922L63.9698 6.90828C66.2824 4.44141 69.2773 3.17969 72.6443 3.17969ZM72.6443 7.65969C70.4857 7.65969 68.6836 8.43057 67.2381 9.97242C65.8119 11.5143 65.0988 13.3935 65.0988 15.6099C65.0988 18.0575 65.8891 19.9945 67.4695 21.4207C69.0691 22.8469 71.0735 23.5601 73.4826 23.5601C75.7183 23.5601 77.3469 23.2421 78.3684 22.6061C78.7732 22.3555 78.9755 21.9121 78.9755 21.2761V19.5993C78.9755 19.0405 78.7154 18.761 78.1951 18.761C78.1758 18.761 77.7226 18.8861 76.8361 19.1367C75.9496 19.3872 74.986 19.5126 73.9453 19.5127C72.7697 19.5127 71.8156 19.2812 71.0832 18.8187C70.3508 18.3368 69.8786 17.7297 69.6665 16.9973H78.6285C79.1874 16.9973 79.5731 16.8913 79.7851 16.6793C79.997 16.448 80.1031 16.0722 80.1031 15.5519C80.1031 13.1235 79.4574 11.2057 78.1661 9.79879C76.8748 8.3726 75.0341 7.65969 72.6443 7.65969ZM72.702 11.5335C73.5692 11.5335 74.2439 11.7647 74.7257 12.2272C75.2268 12.6705 75.5257 13.2682 75.622 14.0198H69.6376C69.7725 13.2682 70.1002 12.6705 70.6206 12.2272C71.1602 11.7647 71.854 11.5335 72.702 11.5335Z" fill="black"/>
<path d="M51.212 8.9898C51.212 8.29599 50.9134 7.94913 50.3159 7.9491C49.9112 7.9491 49.4583 8.12257 48.9572 8.46945C48.6179 8.69129 48.3051 8.97056 48.0188 9.30726C48.0783 8.27931 48.3782 6.70349 49.6643 5.41734L49.7278 5.35391L49.7934 5.2932C50.1521 4.96214 50.5288 4.70078 50.9085 4.49504C51.0985 3.61824 51.5074 2.6133 52.3651 1.73496C53.844 0.197032 55.7432 2.32513e-06 56.7639 0V4.48L56.6611 4.48137C56.1562 4.49604 55.7954 4.6208 55.5785 4.8557C55.3473 5.08698 55.2318 5.47246 55.2318 6.01207V8.23812H54.0175L53.9179 8.23949C53.429 8.25305 53.067 8.3683 52.8321 8.58512C52.6009 8.8164 52.4851 9.21158 52.4851 9.77047V10.6955C52.4851 11.2544 52.6008 11.6496 52.8321 11.8809L52.8808 11.9227C53.1158 12.1124 53.4615 12.2136 53.9179 12.2262L54.0175 12.2276H55.2318V17.2003L55.2332 17.3928C55.2918 21.4081 57.1995 23.4158 60.9559 23.4158C62.0544 23.4158 62.9409 23.2809 63.6154 23.0111C64.0587 22.8377 64.3384 22.6448 64.454 22.4328C64.572 22.2473 64.6383 21.9659 64.6531 21.5887L64.6564 21.4211V19.7154C64.6564 19.1757 64.4249 18.9057 63.9624 18.9057C63.8467 18.9058 63.5866 18.9541 63.182 19.0504C62.7965 19.1468 62.4108 19.195 62.0254 19.195L61.8834 19.1928C61.1855 19.1714 60.6739 18.989 60.3486 18.6457C60.021 18.2602 59.8573 17.5953 59.8573 16.651V12.2276H62.806C63.3456 12.2276 63.7311 12.1121 63.9624 11.8809C64.1973 11.664 64.3221 11.3031 64.3367 10.7983L64.3384 10.6955V9.77047C64.3384 9.24647 64.2283 8.86625 64.0081 8.63023L63.9624 8.58512C63.7311 8.35384 63.3457 8.23812 62.806 8.23812H59.8573V6.01207C59.8573 5.47243 59.7416 5.08698 59.5103 4.8557C59.2935 4.62084 58.9327 4.49606 58.428 4.48137L58.3249 4.48V0C59.3491 0 61.258 0.198508 62.739 1.75109C63.3844 2.41734 63.7736 3.15493 64.0056 3.8541C64.9446 4.00992 66.0822 4.40353 67.0645 5.35391C68.1816 6.41813 68.5989 7.70341 68.7451 8.7232C68.2057 9.05983 67.7031 9.4763 67.2376 9.97281C65.8114 11.5147 65.0983 13.3939 65.0983 15.6103C65.0983 18.0579 65.8886 19.9949 67.469 21.4211L67.6202 21.5526C68.0694 21.9346 68.5496 22.2619 69.0606 22.5348C68.967 23.1859 68.7598 23.9655 68.3038 24.7242C67.3876 26.2797 65.8929 26.9283 65.279 27.1704L65.2793 27.1707C65.2751 27.1723 65.2708 27.1737 65.2667 27.1753C65.2604 27.1778 65.2542 27.1806 65.2481 27.183L65.2478 27.1827C63.8539 27.7337 62.351 27.8958 60.9559 27.8958C58.2582 27.8958 55.4389 27.1463 53.3672 24.8968C52.28 23.7162 51.604 22.3413 51.212 20.904V8.9898ZM58.3249 0V4.48H56.7639V0H58.3249Z" fill="black"/>
<path d="M51.2119 8.98941C51.2119 8.2956 50.9133 7.94874 50.3159 7.94871C49.9112 7.94871 49.4582 8.12218 48.9572 8.46906C48.4561 8.79671 48.0126 9.24958 47.6272 9.82777C47.1068 9.21106 46.3744 8.70043 45.4301 8.2957C44.4857 7.8717 43.4642 7.6597 42.3657 7.65969C40.13 7.65969 38.2894 8.42087 36.8439 9.94344C35.4177 11.4467 34.7045 13.3356 34.7045 15.6099L34.7067 15.8254C34.7499 18.0414 35.4622 19.8777 36.8439 21.334C38.2701 22.818 40.1108 23.5601 42.3657 23.5601C43.4642 23.5601 44.4857 23.3575 45.4301 22.9528C46.3744 22.5288 47.1068 22.0084 47.6272 21.3917C48.0126 21.9699 48.4561 22.4325 48.9572 22.7794C49.4269 23.0865 49.8543 23.2497 50.2393 23.2689L50.3159 23.2708C50.9133 23.2708 51.2119 22.9239 51.2119 22.2301V8.98941ZM42.597 16.1874L43.5964 15.1882C43.5446 15.1364 43.4335 15.049 43.2721 14.9837C43.1979 14.9537 43.1316 14.9359 43.0796 14.9263C43.0541 14.9216 43.0344 14.9193 43.0211 14.9181L43.0017 14.917C43.0017 14.917 42.9716 14.9171 42.9177 14.9271C42.8617 14.9375 42.7892 14.9568 42.7075 14.9903C42.5295 15.0631 42.4014 15.1637 42.3337 15.2334L42.2828 15.2913C42.2644 15.3145 42.245 15.341 42.226 15.3709C42.1877 15.4307 42.1582 15.4914 42.1371 15.5473C42.1274 15.5729 42.1204 15.5948 42.1155 15.6123C42.1212 15.6338 42.13 15.6615 42.1426 15.6944C42.1668 15.7576 42.2012 15.8268 42.2459 15.8956C42.2735 15.938 42.3021 15.975 42.3293 16.0069C42.3878 16.0604 42.4774 16.1284 42.597 16.1874ZM43.8373 15.5473C43.8162 15.4914 43.7867 15.4307 43.7485 15.3709C43.7104 15.3113 43.6715 15.2648 43.6396 15.232L42.638 16.2063C42.6477 16.2106 42.6572 16.2157 42.6673 16.2199C42.8507 16.297 42.9821 16.3025 43.0017 16.3025C43.0223 16.3025 43.144 16.2966 43.312 16.2268C43.4691 16.1615 43.575 16.0776 43.6268 16.028C43.6595 15.9918 43.6946 15.9477 43.7285 15.8956C43.7732 15.8268 43.8076 15.7576 43.8319 15.6944C43.8445 15.6613 43.8526 15.6333 43.8584 15.6118C43.8535 15.5944 43.8469 15.5726 43.8373 15.5473ZM46.5824 15.8169C46.5417 16.8412 46.1962 17.6877 45.5458 18.3563C44.8712 19.0501 44.0231 19.397 43.0017 19.397C41.9802 19.397 41.1225 19.0501 40.4286 18.3563C39.7782 17.6877 39.4327 16.8412 39.392 15.8169L39.3879 15.6099C39.3879 14.492 39.7348 13.586 40.4286 12.8922C41.1225 12.1791 41.9802 11.8225 43.0017 11.8225C44.0231 11.8225 44.8712 12.1791 45.5458 12.8922C46.2396 13.586 46.5865 14.492 46.5865 15.6099L46.5824 15.8169ZM52.832 8.58473C52.6008 8.81601 52.4851 9.21119 52.4851 9.77008V10.6951C52.4851 11.254 52.6008 11.6492 52.832 11.8805C53.0826 12.1117 53.4778 12.2272 54.0174 12.2272H55.2317V17.1999C55.2317 18.3747 55.3852 19.383 55.6919 20.2247V22.2301C55.6919 23.1171 55.5153 24.6188 54.3827 25.9341C53.1398 27.3774 51.4945 27.7508 50.3159 27.7508C49.154 27.7508 48.1452 27.4161 47.3346 27.0076C47.3113 27.0182 47.2884 27.0294 47.2651 27.0398L47.2301 27.0554L47.1949 27.0707C45.655 27.7307 44.0284 28.0401 42.3657 28.0401C39.0206 28.0401 35.9701 26.8899 33.6138 24.4381L33.6036 24.4277L33.5938 24.4173C33.138 23.9369 32.7317 23.4318 32.3718 22.9057C32.5833 22.8482 32.7511 22.7583 32.8747 22.6348C33.1252 22.4035 33.2504 22.0083 33.2504 21.4494V15.8989C33.2504 13.2217 32.6714 11.1993 31.514 9.83133C32.0396 8.76671 32.7303 7.77037 33.5938 6.86016L33.5949 6.85879C35.9457 4.38268 38.9906 3.17969 42.3657 3.17969C44.0573 3.1797 45.7088 3.50987 47.2651 4.20863H47.2649C47.2836 4.21678 47.3022 4.225 47.3209 4.23324C48.1296 3.8136 49.1424 3.46871 50.3159 3.46871L50.4277 3.4698C51.5969 3.49309 53.1786 3.88717 54.3827 5.28543C54.7644 5.72869 55.0374 6.19332 55.2317 6.64824V8.23773H54.0174C53.4777 8.23773 53.0826 8.35345 52.832 8.58473Z" fill="black"/>
<path d="M0 8.98941C0 8.10236 0.176605 6.60072 1.30922 5.28543C2.55218 3.84207 17.3575 3.46872 18.5361 3.46871L18.6903 3.47063C19.7785 3.498 20.7291 3.81236 21.5119 4.21C21.572 4.18255 21.6327 4.15576 21.6934 4.12934L21.7093 4.12223L21.7254 4.11539C23.1619 3.50411 24.6822 3.1797 26.2549 3.17969C29.4764 3.17969 32.5009 4.2394 34.7471 6.72289L34.8534 6.84238L34.8698 6.8607L34.8857 6.8793C35.7072 7.83543 36.3159 8.90349 36.7552 10.0397C35.3887 11.5271 34.7052 13.3838 34.7052 15.6099C34.7053 17.9226 35.4184 19.8307 36.8446 21.334C37.1158 21.6161 37.4021 21.8712 37.7032 22.0996C37.6114 23.1648 37.2455 24.6561 35.9797 25.8635C34.5134 27.2839 32.6995 27.4617 31.719 27.4618H30.1577C29.1188 27.4617 27.3794 27.261 25.9339 25.9267L25.868 25.866L25.8046 25.8028C25.6742 25.6725 25.5545 25.5387 25.4436 25.4033C25.3699 25.4942 25.2925 25.5846 25.2104 25.6735L25.1497 25.7394L25.0863 25.8028C23.5864 27.3025 21.6926 27.4618 20.7331 27.4618H19.1721C18.2126 27.4618 3.15875 27.3026 1.65895 25.8028L1.59551 25.7394L1.5348 25.6735C0.200477 24.2279 0 22.4883 0 21.4494V8.98941ZM17.64 21.4494C17.64 21.989 17.7555 22.3842 17.9867 22.6348C18.218 22.866 18.6132 22.9818 19.1721 22.9818H20.7331C21.292 22.9818 21.6872 22.866 21.9185 22.6348C22.1353 22.3999 22.2506 22.038 22.2641 21.5489L22.2655 21.4494V16.0146C22.2655 14.7233 22.5546 13.7404 23.1328 13.0658C23.711 12.3913 24.5205 12.0538 25.5612 12.0538C26.6019 12.0538 27.3826 12.3913 27.9029 13.0658C28.3847 13.6826 28.6256 14.675 28.6256 16.0433V21.4494L28.627 21.5525C28.6406 22.0572 28.7558 22.418 28.9726 22.6348C29.2232 22.866 29.6181 22.9817 30.1577 22.9818H31.719L31.8183 22.9804C32.3062 22.9668 32.6586 22.8516 32.8754 22.6348C33.1259 22.4035 33.2511 22.0083 33.2511 21.4494V15.8989C33.2511 13.2007 32.6634 11.1672 31.4877 9.79879C30.2349 8.3726 28.4906 7.65969 26.2549 7.65969C25.3106 7.6597 24.3853 7.85228 23.4795 8.23773C22.593 8.6232 21.8509 9.17266 21.2535 9.88574C20.868 9.269 20.4248 8.79671 19.9238 8.46906C19.4226 8.12214 18.9601 7.94871 18.5361 7.94871C17.9386 7.94872 17.64 8.29559 17.64 8.98941V21.4494Z" fill="black"/>
<path d="M6.58159 15.8145C6.58159 15.8155 6.58204 15.8165 6.58282 15.8171C8.69606 17.6524 10.7128 19.4024 12.7653 21.1837C13.5362 21.8526 13.0632 23.1197 12.0425 23.1197H4.97132C4.30042 23.1197 3.92716 22.2076 4.50063 21.8595C6.25071 20.7955 6.94815 19.2984 6.59132 17.2807C6.52158 16.8898 6.58159 16.4778 6.58159 15.8145Z" fill="url(#paint0_linear_4096_1742)"/>
<path d="M5.2281 9.93561C4.45774 9.26645 4.93095 8 5.95137 8H12.0726C13.0936 8 13.6157 9.32678 12.798 9.93811C12.7231 9.99407 12.6476 10.0487 12.5711 10.102C11.6726 10.7297 11.3482 11.4888 11.4601 12.5609C11.4733 12.6884 11.4829 12.8162 11.4897 12.9451C11.5397 13.8896 10.3656 14.3976 9.65155 13.7775C8.16913 12.49 6.71146 11.2241 5.2281 9.93561Z" fill="url(#paint1_linear_4096_1742)"/>
<defs>
<linearGradient id="paint0_linear_4096_1742" x1="9.01614" y1="15.8145" x2="9.01614" y2="23.1197" gradientUnits="userSpaceOnUse">
<stop stop-color="#FFD208"/>
<stop offset="1" stop-color="#FF941A"/>
</linearGradient>
<linearGradient id="paint1_linear_4096_1742" x1="9.01419" y1="8" x2="9.01419" y2="15.3637" gradientUnits="userSpaceOnUse">
<stop stop-color="#FFD208"/>
<stop offset="1" stop-color="#FF941A"/>
</linearGradient>
</defs>
</svg>
